Genre:Action | Adventure | Thriller
Language:English
IMDb:http://www.imdb.com/title/tt1320253/
Source:720p.BluRay.x264-Felony

General
Complete name :The.Expendables.2010.480p.BRRip.H264.Feel-Free
Format : MPEG-4
Format profile : Base Media / Version 2
Codec ID : mp42
File size : 1.35 GiB
Duration : 1h 43mn
Overall bit rate : 1 865 Kbps
Video #1
Codec ID : avc1
Codec ID/Info : Advanced Video Coding
Duration : 1h 43mn
Bit rate mode : Variable
Bit rate : 1 384 Kbps
Width : 720 pixels
Height : 304 pixels
Display aspect ratio : 2.35:1
Frame rate mode : Constant
Frame rate : 23.976 fps
Resolution : 24 bits
Colorimetry : 4:2:0
Scan type : Progressive
Bits/(Pixel*Frame) : 0.264
Stream size : 1.00 GiB (74%)
Audio #2
ID : 2
Format : AAC
Format/Info : Advanced Audio Codec
Format version : Version 4
Format profile : LC
Format settings, SBR : No
Codec ID : 40
Duration : 1h 43mn
Bit rate mode : Constant
Bit rate : 477 Kbps
Nominal bit rate : 480 Kbps
Channel(s) : 6 channels
Channel positions : Front: L C R, Rear: L R, LFE
Sampling rate : 48.0 KHz
Resolution : 16 bits
Stream size : 353 MiB (26%)

Plot
A team of mercenaries head to South America on a mission to overthrow a dictator










================================== 
http://thepiratebay.org/user/hiest
==================================











Screenshots:
 
http://rapidhdd.com/images/199856vlcsnap-2010-11-12-06h49m49s89.png
 
http://www.rapidhdd.com/images/736003vlcsnap-2010-11-12-06h51m33s118.png
 
http://www.rapidhdd.com/images/833809vlcsnap-2010-11-12-06h55m48s105.png
 
http://www.rapidhdd.com/images/35845vlcsnap-2010-11-12-06h52m05s174.png
 
http://www.rapidhdd.com/images/634467vlcsnap-2010-11-12-06h53m25s211.png
 
http://www.rapidhdd.com/images/125994vlcsnap-2010-11-12-06h50m17s131.png
 
http://www.rapidhdd.com/images/304680vlcsnap-2010-11-12-06h53m48s164.png
 
http://www.rapidhdd.com/images/717154vlcsnap-2010-11-12-06h53m33s39.png